<?xml version="1.0" standalone="no"?>
<!DOCTYPE svg PUBLIC "-//W3C//DTD SVG 20010904//EN" "http://www.w3.org/TR/2001/REC-SVG-20010904/DTD/svg10.dtd">
<svg version="1.0" xmlns="http://www.w3.org/2000/svg" width="512.000000pt" height="512.000000pt"
  viewBox="0 0 512.000000 512.000000" preserveAspectRatio="xMidYMid meet">
  <g transform="translate(0.000000,512.000000) scale(0.100000,-0.100000)" fill="#000000" stroke="none">
    <path d="M2390 5114 c-19 -2 -78 -9 -130 -15 -340 -38 -719 -168 -1020 -349
-342 -206 -664 -528 -870 -870 -176 -292 -295 -629 -346 -985 -24 -165 -24
-505 0 -670 51 -356 170 -693 346 -985 206 -342 528 -664 870 -870 298 -180
661 -305 1020 -352 120 -15 475 -16 601 0 452 56 876 227 1248 505 53 39 168
144 256 232 230 229 352 399 490 680 123 249 194 476 237 750 31 200 31 550 0
750 -43 273 -114 498 -237 750 -136 279 -260 450 -490 680 -214 215 -388 343
-635 470 -268 137 -534 221 -825 260 -115 15 -442 28 -515 19z m661 -1184
c216 -22 406 -74 577 -157 50 -25 92 -51 92 -59 0 -11 -129 -464 -134 -471 -1
-1 -37 16 -80 38 -97 51 -211 93 -346 127 -94 24 -124 26 -290 27 -201 0 -254
-9 -391 -65 -225 -93 -391 -284 -464 -534 -70 -244 -48 -537 56 -736 101 -195
280 -331 514 -392 81 -21 112 -23 310 -23 121 0 237 4 258 8 l37 8 0 274 0
275 -170 0 -170 0 0 235 0 235 435 0 435 0 0 -694 0 -695 -111 -36 c-395 -127
-899 -153 -1251 -64 -353 89 -619 281 -788 568 -187 319 -220 810 -84 1221
209 630 820 985 1565 910z" />
  </g>
</svg>